<svg xmlns="http://www.w3.org/2000/svg" width="339.224" height="304.041" viewBox="0 0 339.224 304.041">
  <g id="SvgjsG1433" transform="translate(-79.388 -184.904)">
    <path id="Trazado_293" data-name="Trazado 293" d="M147.061,392.67a28.1,28.1,0,0,0-6.136-8.522,30.316,30.316,0,0,0-9.714-5.624,44.116,44.116,0,0,0-12.953-1.874H86.388v12.782h30.679a21.038,21.038,0,0,1,12.782,3.749q4.773,3.58,4.772,10.908a13.68,13.68,0,0,1-4.6,10.737q-4.943,3.92-12.953,3.92H86.388v39.03h14.146V431.7h16.021a45.807,45.807,0,0,0,12.782-1.875,31.106,31.106,0,0,0,10.226-5.283,23.928,23.928,0,0,0,6.988-8.692,26.361,26.361,0,0,0,2.556-11.93,28.416,28.416,0,0,0-2.045-11.249Zm67.284,17.725V376.479H200.029v81.466h14.316Zm74.615,27.269,7.669-10.226-.17-.341Zm44.483-61.015H317.082L296.8,405.792l-20.111-29.143H259.817l28.462,39.88-29.486,41.244H277.03Zm1.023,81.126-22.5-31.87-8.522,11.419,14.317,20.451h16.7Zm27.916-81.3h-15.85l31.7,49.254v32.212h15.509V425.393Zm63.23,0H410.784l-18.747,26.758,8.351,11.249Z" transform="translate(-7 31)" fill="#fff"/>
  </g>
  <g id="mariachi" transform="translate(7.25 -24.219)">
    <g id="Grupo_3" data-name="Grupo 3" transform="translate(1.75 24.219)">
      <path id="Trazado_1" data-name="Trazado 1" d="M169.693,153.535H36.583L53.075,65.754a50.938,50.938,0,0,1,100.125,0Z" transform="translate(47.974 -24.219)" fill="#ffbc65"/>
      <path id="Trazado_2" data-name="Trazado 2" d="M1.75,77.49H303.974a63.822,63.822,0,0,1-63.822,63.822H65.572A63.822,63.822,0,0,1,1.75,77.49Z" transform="translate(-1.75 51.826)" fill="#ffbc65"/>
      <path id="Trazado_3" data-name="Trazado 3" d="M301.7,83.037,277.105,94.881a9.71,9.71,0,0,1-8.428,0L246.864,84.375a9.71,9.71,0,0,0-8.428,0l-21.787,10.5a9.722,9.722,0,0,1-8.431,0l-21.8-10.5a9.71,9.71,0,0,0-8.431,0l-21.784,10.5a9.71,9.71,0,0,1-8.433,0L126,84.377a9.71,9.71,0,0,0-8.433,0l-21.787,10.5a9.71,9.71,0,0,1-8.431,0l-21.787-10.5a9.71,9.71,0,0,0-8.431,0l-21.784,10.5a9.71,9.71,0,0,1-8.431,0L2.341,83.037A63.62,63.62,0,0,0,16.607,111.47l10.3,4.976a9.71,9.71,0,0,0,8.431,0l21.784-10.511a9.71,9.71,0,0,1,8.431,0l21.787,10.511a9.71,9.71,0,0,0,8.431,0l21.787-10.5a9.71,9.71,0,0,1,8.433,0l21.777,10.5a9.71,9.71,0,0,0,8.433,0l21.787-10.514a9.71,9.71,0,0,1,8.431,0l21.794,10.514a9.71,9.71,0,0,0,8.431,0l21.789-10.514a9.71,9.71,0,0,1,8.428,0l21.809,10.506a9.71,9.71,0,0,0,8.428,0l10.334-4.979A63.623,63.623,0,0,0,301.7,83.037Z" transform="translate(-0.906 59.744)" fill="#f45b55"/>
      <path id="Trazado_4" data-name="Trazado 4" d="M40.642,70.247h113.4l-4.588-24.423H45.23Z" transform="translate(53.769 6.622)" fill="#f45b55"/>
      <g id="Grupo_2" data-name="Grupo 2" transform="translate(105.638 93.372)">
        <path id="Trazado_5" data-name="Trazado 5" d="M71.227,81.948,58.937,62.683H83.518Z" transform="translate(-25.753 -62.683)" fill="#5546de"/>
        <path id="Trazado_6" data-name="Trazado 6" d="M84.9,62.683,97.189,81.948H72.606Z" transform="translate(-6.24 -62.683)" fill="#5546de"/>
        <path id="Trazado_7" data-name="Trazado 7" d="M57.56,62.683,45.267,81.948H69.85Z" transform="translate(-45.267 -62.683)" fill="#5546de"/>
      </g>
    </g>
  </g>
</svg>
